<svg id="re-minder-logo" width="64" height="64" viewBox="0 0 24 24" fill="none" xmlns="http://www.w3.org/2000/svg">
                    <defs>
                        <linearGradient id="logoGradient" x1="0" y1="0" x2="1" y2="1">
                            <stop offset="0%" stop-color="#4F46E5"></stop> <!-- Indigo -->
                            <stop offset="100%" stop-color="#3B82F6"></stop> <!-- Primary Blue -->
                        </linearGradient>
                    </defs>
                    <!-- Main document path with integrated chain links -->
                    <path fill-rule="evenodd" clip-rule="evenodd" d="M18 3H7C5.34315 3 4 4.34315 4 6V18C4 19.6569 5.34315 21 7 21H12V19H7C6.44772 19 6 18.5523 6 18V6C6 5.44772 6.44772 5 7 5H17C17.5523 5 18 5.44772 18 6V10H20V6C20 4.34315 18.6569 3 17 3H18Z" fill="url(#logoGradient)"></path>
                    <!-- Chain link element -->
                    <path d="M16 13H20C21.1046 13 22 13.8954 22 15V15C22 16.1046 21.1046 17 20 17H16C14.8954 17 14 16.1046 14 15V15C14 13.8954 14.8954 13 16 13Z" fill="url(#logoGradient)"></path>
                    <path d="M12 17H16C17.1046 17 18 17.8954 18 19V19C18 20.1046 17.1046 21 16 21H12C10.8954 21 10 20.1046 10 19V19C10 17.8954 10.8954 17 12 17Z" fill="url(#logoGradient)"></path>
                </svg>