<svg width="292" height="64" viewBox="0 0 292 64" fill="none" xmlns="http://www.w3.org/2000/svg">
<path fill-rule="evenodd" clip-rule="evenodd" d="M48 8H18.6666C14.2484 8 10.6666 11.5817 10.6666 16V48C10.6666 52.4184 14.2484 56 18.6666 56H32V50.6667H18.6666C17.1939 50.6667 16 49.4728 16 48V16C16 14.5273 17.1939 13.3333 18.6666 13.3333H45.3333C46.8061 13.3333 48 14.5273 48 16V26.6667H53.3333V16C53.3333 11.5817 49.7517 8 45.3333 8H48Z" fill="url(#paint0_linear_212_2)"/>
<path d="M42.6667 34.6667H53.3334C56.279 34.6667 58.6667 37.0544 58.6667 40C58.6667 42.9456 56.279 45.3333 53.3334 45.3333H42.6667C39.7211 45.3333 37.3334 42.9456 37.3334 40C37.3334 37.0544 39.7211 34.6667 42.6667 34.6667Z" fill="url(#paint1_linear_212_2)"/>
<path d="M32 45.3333H42.6666C45.6122 45.3333 48 47.7211 48 50.6667C48 53.6123 45.6122 56 42.6666 56H32C29.0544 56 26.6666 53.6123 26.6666 50.6667C26.6666 47.7211 29.0544 45.3333 32 45.3333Z" fill="url(#paint2_linear_212_2)"/>
<path d="M87.4 14.2C89.832 14.2 91.992 14.632 93.88 15.496C95.768 16.328 97.24 17.56 98.296 19.192C99.384 20.792 99.928 22.776 99.928 25.144C99.928 26.52 99.72 27.88 99.304 29.224C98.888 30.568 98.216 31.784 97.288 32.872C96.392 33.96 95.176 34.84 93.64 35.512C92.136 36.152 90.28 36.472 88.072 36.472H82.936V49H77.944V14.2H87.4ZM87.976 31.624C89.768 31.624 91.144 31.288 92.104 30.616C93.096 29.912 93.784 29.08 94.168 28.12C94.552 27.128 94.744 26.2 94.744 25.336C94.744 24.696 94.632 24.024 94.408 23.32C94.184 22.584 93.816 21.896 93.304 21.256C92.824 20.584 92.168 20.056 91.336 19.672C90.504 19.256 89.48 19.048 88.264 19.048H82.936V31.624H87.976ZM93.832 34.6L102.856 49H97L87.832 34.696L93.832 34.6ZM116.459 49.48C114.155 49.48 112.171 49.032 110.507 48.136C108.843 47.208 107.563 45.944 106.667 44.344C105.771 42.712 105.323 40.872 105.323 38.824C105.323 36.84 105.819 35.048 106.811 33.448C107.835 31.816 109.195 30.52 110.891 29.56C112.587 28.6 114.475 28.12 116.555 28.12C119.243 28.12 121.467 28.904 123.227 30.472C125.019 32.008 126.219 34.184 126.827 37L110.459 42.664L109.307 39.88L122.459 35.08L121.451 35.752C121.067 34.728 120.459 33.848 119.627 33.112C118.795 32.344 117.659 31.96 116.219 31.96C114.427 31.96 112.955 32.584 111.803 33.832C110.683 35.048 110.123 36.616 110.123 38.536C110.123 40.584 110.731 42.232 111.947 43.48C113.163 44.728 114.699 45.352 116.555 45.352C117.419 45.352 118.251 45.208 119.051 44.92C119.851 44.6 120.603 44.184 121.307 43.672L123.515 47.272C122.491 47.944 121.355 48.488 120.107 48.904C118.891 49.288 117.675 49.48 116.459 49.48ZM129.006 33.16C129.006 32.392 129.278 31.752 129.822 31.24C130.366 30.696 130.99 30.424 131.694 30.424C132.302 30.424 132.878 30.696 133.422 31.24C133.998 31.752 134.286 32.392 134.286 33.16C134.286 33.96 133.998 34.616 133.422 35.128C132.878 35.608 132.302 35.848 131.694 35.848C130.99 35.848 130.366 35.608 129.822 35.128C129.278 34.616 129.006 33.96 129.006 33.16ZM129.006 46.312C129.006 45.544 129.278 44.904 129.822 44.392C130.366 43.848 130.99 43.576 131.694 43.576C132.302 43.576 132.878 43.848 133.422 44.392C133.998 44.904 134.286 45.544 134.286 46.312C134.286 47.112 133.998 47.768 133.422 48.28C132.878 48.76 132.302 49 131.694 49C130.99 49 130.366 48.76 129.822 48.28C129.278 47.768 129.006 47.112 129.006 46.312ZM140.033 49V13.048H140.081L158.513 39.208L156.353 38.776L174.737 13.048H174.833V49H169.841V24.424L170.129 26.968L157.265 45.256H157.169L144.017 26.968L144.881 24.616V49H140.033ZM182.546 28.936H187.394V49H182.546V28.936ZM182.306 21.736C182.306 21 182.594 20.376 183.17 19.864C183.778 19.352 184.434 19.096 185.138 19.096C185.842 19.096 186.482 19.352 187.058 19.864C187.634 20.376 187.922 21 187.922 21.736C187.922 22.536 187.634 23.176 187.058 23.656C186.482 24.136 185.842 24.376 185.138 24.376C184.434 24.376 183.778 24.136 183.17 23.656C182.594 23.176 182.306 22.536 182.306 21.736ZM198.376 28.936L198.808 33.592L198.616 32.92C199.256 31.48 200.28 30.328 201.688 29.464C203.128 28.6 204.808 28.168 206.728 28.168C208.616 28.168 210.168 28.728 211.384 29.848C212.6 30.936 213.224 32.376 213.256 34.168V49H208.408V35.848C208.376 34.824 208.072 33.992 207.496 33.352C206.92 32.68 206.024 32.328 204.808 32.296C203.112 32.296 201.688 33 200.536 34.408C199.416 35.816 198.856 37.624 198.856 39.832V49H194.008V28.936H198.376ZM228.115 49.48C226.227 49.48 224.531 49.048 223.027 48.184C221.523 47.288 220.339 46.024 219.475 44.392C218.611 42.76 218.179 40.856 218.179 38.68C218.179 36.44 218.643 34.536 219.571 32.968C220.499 31.4 221.747 30.2 223.315 29.368C224.915 28.536 226.707 28.12 228.691 28.12C230.227 28.12 231.683 28.44 233.059 29.08C234.467 29.688 235.571 30.552 236.371 31.672L236.179 33.352V11.704H241.027V49H236.131V44.2L236.659 45.496C235.699 46.648 234.483 47.608 233.011 48.376C231.571 49.112 229.939 49.48 228.115 49.48ZM229.603 45.4C231.299 45.4 232.707 44.968 233.827 44.104C234.979 43.208 235.747 42.024 236.131 40.552V36.568C235.779 35.224 234.995 34.12 233.779 33.256C232.595 32.392 231.203 31.96 229.603 31.96C228.451 31.96 227.379 32.248 226.387 32.824C225.395 33.368 224.595 34.152 223.987 35.176C223.411 36.168 223.123 37.32 223.123 38.632C223.123 39.88 223.411 41.016 223.987 42.04C224.595 43.064 225.395 43.88 226.387 44.488C227.379 45.096 228.451 45.4 229.603 45.4ZM257.042 49.48C254.738 49.48 252.754 49.032 251.09 48.136C249.426 47.208 248.146 45.944 247.25 44.344C246.354 42.712 245.906 40.872 245.906 38.824C245.906 36.84 246.402 35.048 247.394 33.448C248.418 31.816 249.778 30.52 251.474 29.56C253.17 28.6 255.058 28.12 257.138 28.12C259.826 28.12 262.05 28.904 263.81 30.472C265.602 32.008 266.803 34.184 267.411 37L251.042 42.664L249.89 39.88L263.042 35.08L262.034 35.752C261.65 34.728 261.042 33.848 260.21 33.112C259.378 32.344 258.242 31.96 256.802 31.96C255.01 31.96 253.538 32.584 252.386 33.832C251.266 35.048 250.706 36.616 250.706 38.536C250.706 40.584 251.314 42.232 252.53 43.48C253.746 44.728 255.282 45.352 257.138 45.352C258.002 45.352 258.834 45.208 259.635 44.92C260.434 44.6 261.186 44.184 261.89 43.672L264.098 47.272C263.074 47.944 261.938 48.488 260.69 48.904C259.474 49.288 258.258 49.48 257.042 49.48ZM276.213 28.936L276.693 34.696L276.501 33.928C277.045 32.712 277.797 31.672 278.757 30.808C279.749 29.944 280.773 29.288 281.829 28.84C282.917 28.36 283.829 28.12 284.565 28.12L284.325 32.92C282.821 32.824 281.493 33.112 280.341 33.784C279.221 34.456 278.341 35.352 277.701 36.472C277.061 37.592 276.741 38.792 276.741 40.072V49H271.893V28.936H276.213Z" fill="url(#paint3_linear_212_2)"/>
<defs>
<linearGradient id="paint0_linear_212_2" x1="10.6666" y1="8" x2="58.3356" y2="50.3724" gradientUnits="userSpaceOnUse">
<stop stop-color="white"/>
<stop offset="1" stop-color="#BEBEBE"/>
</linearGradient>
<linearGradient id="paint1_linear_212_2" x1="37.3334" y1="34.6667" x2="45.8667" y2="51.7333" gradientUnits="userSpaceOnUse">
<stop stop-color="white"/>
<stop offset="1" stop-color="#BEBEBE"/>
</linearGradient>
<linearGradient id="paint2_linear_212_2" x1="26.6666" y1="45.3333" x2="35.2" y2="62.4" gradientUnits="userSpaceOnUse">
<stop stop-color="white"/>
<stop offset="1" stop-color="#BEBEBE"/>
</linearGradient>
<linearGradient id="paint3_linear_212_2" x1="73" y1="32" x2="292" y2="32" gradientUnits="userSpaceOnUse">
<stop stop-color="white"/>
<stop offset="1" stop-color="#BEBEBE"/>
</linearGradient>
</defs>
</svg>
