<svg width="245" height="64" viewBox="0 0 245 64" fill="none" xmlns="http://www.w3.org/2000/svg">
<path fill-rule="evenodd" clip-rule="evenodd" d="M48 8H18.6666C14.2484 8 10.6666 11.5817 10.6666 16V48C10.6666 52.4184 14.2484 56 18.6666 56H32V50.6667H18.6666C17.1939 50.6667 16 49.4728 16 48V16C16 14.5273 17.1939 13.3333 18.6666 13.3333H45.3333C46.8061 13.3333 48 14.5273 48 16V26.6667H53.3333V16C53.3333 11.5817 49.7517 8 45.3333 8H48Z" fill="url(#paint0_linear_209_8)"/>
<path d="M42.6667 34.6667H53.3334C56.279 34.6667 58.6667 37.0544 58.6667 40C58.6667 42.9456 56.279 45.3333 53.3334 45.3333H42.6667C39.7211 45.3333 37.3334 42.9456 37.3334 40C37.3334 37.0544 39.7211 34.6667 42.6667 34.6667Z" fill="url(#paint1_linear_209_8)"/>
<path d="M32 45.3333H42.6666C45.6122 45.3333 48 47.7211 48 50.6667C48 53.6123 45.6122 56 42.6666 56H32C29.0544 56 26.6666 53.6123 26.6666 50.6667C26.6666 47.7211 29.0544 45.3333 32 45.3333Z" fill="url(#paint2_linear_209_8)"/>
<path d="M108.232 50.2L81.4 23.416L82.888 23.896L82.984 49H77.944V13.096H78.136L104.632 39.88L103.48 39.592L103.384 14.2H108.376V50.2H108.232ZM115.137 31.624C115.137 29.224 115.585 26.952 116.481 24.808C117.409 22.664 118.689 20.776 120.321 19.144C121.953 17.48 123.841 16.184 125.985 15.256C128.129 14.296 130.417 13.816 132.849 13.816C135.281 13.816 137.569 14.296 139.713 15.256C141.889 16.184 143.793 17.48 145.425 19.144C147.089 20.776 148.385 22.664 149.313 24.808C150.241 26.952 150.705 29.224 150.705 31.624C150.705 34.088 150.241 36.392 149.313 38.536C148.385 40.68 147.089 42.568 145.425 44.2C143.793 45.832 141.889 47.112 139.713 48.04C137.569 48.936 135.281 49.384 132.849 49.384C130.417 49.384 128.129 48.936 125.985 48.04C123.841 47.112 121.953 45.848 120.321 44.248C118.689 42.648 117.409 40.776 116.481 38.632C115.585 36.456 115.137 34.12 115.137 31.624ZM120.321 31.672C120.321 34.04 120.881 36.2 122.001 38.152C123.121 40.104 124.641 41.656 126.561 42.808C128.481 43.96 130.625 44.536 132.993 44.536C135.329 44.536 137.441 43.96 139.329 42.808C141.217 41.656 142.721 40.104 143.841 38.152C144.961 36.2 145.521 34.024 145.521 31.624C145.521 29.224 144.945 27.048 143.793 25.096C142.673 23.112 141.153 21.544 139.233 20.392C137.345 19.24 135.233 18.664 132.897 18.664C130.529 18.664 128.385 19.256 126.465 20.44C124.577 21.592 123.073 23.16 121.953 25.144C120.865 27.096 120.321 29.272 120.321 31.672ZM153.449 14.2H176.633V19.048H167.417V49H162.377V19.048H153.449V14.2ZM180.426 14.2H203.61V19.048H194.394V49H189.354V19.048H180.426V14.2ZM206.335 31.624C206.335 29.224 206.783 26.952 207.679 24.808C208.607 22.664 209.887 20.776 211.519 19.144C213.151 17.48 215.039 16.184 217.183 15.256C219.327 14.296 221.615 13.816 224.047 13.816C226.479 13.816 228.767 14.296 230.911 15.256C233.087 16.184 234.991 17.48 236.623 19.144C238.287 20.776 239.583 22.664 240.511 24.808C241.439 26.952 241.903 29.224 241.903 31.624C241.903 34.088 241.439 36.392 240.511 38.536C239.583 40.68 238.287 42.568 236.623 44.2C234.991 45.832 233.087 47.112 230.911 48.04C228.767 48.936 226.479 49.384 224.047 49.384C221.615 49.384 219.327 48.936 217.183 48.04C215.039 47.112 213.151 45.848 211.519 44.248C209.887 42.648 208.607 40.776 207.679 38.632C206.783 36.456 206.335 34.12 206.335 31.624ZM211.519 31.672C211.519 34.04 212.079 36.2 213.199 38.152C214.319 40.104 215.839 41.656 217.759 42.808C219.679 43.96 221.823 44.536 224.191 44.536C226.527 44.536 228.639 43.96 230.527 42.808C232.415 41.656 233.919 40.104 235.039 38.152C236.159 36.2 236.719 34.024 236.719 31.624C236.719 29.224 236.143 27.048 234.991 25.096C233.871 23.112 232.351 21.544 230.431 20.392C228.543 19.24 226.431 18.664 224.095 18.664C221.727 18.664 219.583 19.256 217.663 20.44C215.775 21.592 214.271 23.16 213.151 25.144C212.063 27.096 211.519 29.272 211.519 31.672Z" fill="url(#paint3_linear_209_8)"/>
<defs>
<linearGradient id="paint0_linear_209_8" x1="10.6666" y1="8" x2="58.3356" y2="50.3724" gradientUnits="userSpaceOnUse">
<stop stop-color="#7063FF"/>
<stop offset="1" stop-color="#190D5D"/>
</linearGradient>
<linearGradient id="paint1_linear_209_8" x1="37.3334" y1="34.6667" x2="45.8667" y2="51.7333" gradientUnits="userSpaceOnUse">
<stop stop-color="#7063FF"/>
<stop offset="1" stop-color="#190D5D"/>
</linearGradient>
<linearGradient id="paint2_linear_209_8" x1="26.6666" y1="45.3333" x2="35.2" y2="62.4" gradientUnits="userSpaceOnUse">
<stop stop-color="#7063FF"/>
<stop offset="1" stop-color="#190D5D"/>
</linearGradient>
<linearGradient id="paint3_linear_209_8" x1="73" y1="32" x2="292" y2="32" gradientUnits="userSpaceOnUse">
<stop stop-color="#1827FF"/>
<stop offset="1" stop-color="#0A044E"/>
</linearGradient>
</defs>
</svg>
